<svg width="200" height="200" xmlns="http://www.w3.org/2000/svg">
 <!-- Created with Method Draw - http://github.com/duopixel/Method-Draw/ -->
 <g>
  <title>background</title>
  <rect fill="none" id="canvas_background" height="202" width="202" y="-1" x="-1"/>
 </g>
 <g>
  <title>Layer 1</title>
  <path stroke="#000" transform="rotate(-180 100,100) " id="svg_13" d="m161.852761,86.251287c-6.168287,-35.545292 -35.68328,-62.499785 -71.242409,-62.499785l0,27.490559c25.594471,0.041236 46.294824,21.827503 46.353632,48.754506c-0.058808,26.920129 -20.759161,48.692652 -46.353632,48.747633l0,27.504304c35.55913,-0.027491 65.074122,-26.981983 71.242409,-62.51353l30.645409,0l0,-27.483686l-30.645409,0zm-30.612738,13.745279c0,-23.607517 -18.19122,-42.740946 -40.636205,-42.740946c-17.857975,0 -32.997722,12.137082 -38.447247,28.988794l-44.654739,0l0,27.497431l44.654739,0c5.442991,16.851712 20.582738,28.995667 38.447247,28.995667c22.444985,0 40.636205,-19.140301 40.636205,-42.740946z" fill-opacity="null" stroke-opacity="null" stroke-width="2" fill="#529D94"/>
 </g>
</svg>